HIERARCHY
ROOT Hips
{
  OFFSET 0 0 0
  CHANNELS 6 Xposition Yposition Zposition Zrotation Yrotation Xrotation
  JOINT LeftThigh
  {
    OFFSET 8.409438 0 -5.917753
    CHANNELS 3 Zrotation Yrotation Xrotation
    JOINT LeftLeg
    {
      OFFSET 0 0 -42.358652
      CHANNELS 3 Zrotation Yrotation Xrotation
      JOINT LeftFoot
      {
        OFFSET 0 0 -39.357303
        CHANNELS 3 Zrotation Yrotation Xrotation
      }
    }
  }
  JOINT RightThigh
  {
    OFFSET -8.409438 0 -5.917753
    CHANNELS 3 Zrotation Yrotation Xrotation
    JOINT RightLeg
    {
      OFFSET 0 0 -42.358652
      CHANNELS 3 Zrotation Yrotation Xrotation
      JOINT RightFoot
      {
        OFFSET 0 0 -39.357303
        CHANNELS 3 Zrotation Yrotation Xrotation
      }
    }
  }
  JOINT SpineLow
  {
    OFFSET 0 0 4.719101
    CHANNELS 3 Zrotation Yrotation Xrotation
    JOINT SpineMid
    {
      OFFSET 0 0 12.899191
      CHANNELS 3 Zrotation Yrotation Xrotation
      JOINT Chest
      {
        OFFSET 0 0 12.899191
        CHANNELS 3 Zrotation Yrotation Xrotation
        JOINT LeftShoulder
        {
          OFFSET 7.550562 1.41573 9.438202
          CHANNELS 3 Zrotation Yrotation Xrotation
          JOINT LeftArm
          {
            OFFSET 9.155056 0 4.247191
            CHANNELS 3 Zrotation Yrotation Xrotation
            JOINT LeftForearm
            {
              OFFSET 0 0 25.771955
              CHANNELS 3 Zrotation Yrotation Xrotation
              JOINT LeftHand
              {
                OFFSET 0 0 25.197169
                CHANNELS 3 Zrotation Yrotation Xrotation
              }
            }
          }
        }
        JOINT RightShoulder
        {
          OFFSET -7.550562 1.41573 9.438202
          CHANNELS 3 Zrotation Yrotation Xrotation
          JOINT RightArm
          {
            OFFSET -9.155056 0 4.247191
            CHANNELS 3 Zrotation Yrotation Xrotation
            JOINT RightForearm
            {
              OFFSET 0 0 -25.771955
              CHANNELS 3 Zrotation Yrotation Xrotation
              JOINT RightHand
              {
                OFFSET 0 0 -25.197169
                CHANNELS 3 Zrotation Yrotation Xrotation
              }
            }
          }
        }
        JOINT Neck
        {
          OFFSET 0 0 15.101124
          CHANNELS 3 Zrotation Yrotation Xrotation
          JOINT Head
          {
            OFFSET 0 0 11.325843
            CHANNELS 3 Zrotation Yrotation Xrotation
            End Site
            {
              OFFSET 0 0 14.157303
            }
          }
        }
      }
    }
  }
}
MOTION
Frames: 10
Frame Time: 0.0
0.0  93.25843  0.0  -5.22867  -33.104691  -91.829165  8.886964  -20.594479  0.812113  14.91037  -0.363771  18.190934  10.025109  1.921434  8.199456  -4.927713  -2.317434  -15.87223  -5.746488  11.132015  12.41555  14.696839  2.465513  0.899034  -0.877139  -2.018148  0.686416  -2.459962  -5.490097  1.953446  -2.459962  -5.490097  1.953445  -13.123593  33.647225  -3.890477  161.222536  63.413277  -145.086845  2.269529  -12.667137  65.338231  84.775135  -4.592988  -11.645078  -14.484349  -0.246854  20.368606  44.420971  22.232559  20.446855  -25.243125  1.753821  -119.62726  81.666431  6.046571  -21.8969  9.376061  2.088463  2.928575  7.021451  1.611769  2.164736  
0.0  93.25843  0.0  -5.529661  -32.778096  -91.926629  8.419507  -21.440334  -0.084082  15.373014  -0.388041  20.62072  9.68439  2.147812  8.32764  -4.442934  -2.519533  -15.598704  -5.421377  11.397033  13.202247  14.745286  2.724493  0.878095  -0.840044  -2.079686  0.690944  -2.360822  -5.65922  1.965181  -2.360822  -5.65922  1.965181  -11.670794  34.253264  -3.171217  159.751651  62.791916  -144.969005  2.345744  -12.599887  64.704061  84.726731  -4.995619  -11.404781  -14.198407  -0.037086  20.618908  44.259206  22.867847  20.321476  -26.704787  0.170136  -120.290717  81.87036  5.685769  -23.997047  9.217459  2.13195  3.002192  6.902021  1.644731  2.219812  
0.0  93.25843  0.0  -5.8957  -32.176805  -91.92916  7.947084  -22.38766  -1.14018  15.568753  -0.370903  22.966332  9.194204  2.412104  8.344081  -4.040239  -2.661232  -15.497469  -5.371592  11.658776  14.187052  14.818689  2.888906  0.811793  -0.795479  -2.144347  0.670451  -2.23912  -5.837989  1.907645  -2.23912  -5.837989  1.907646  -11.839395  34.362206  -2.809407  160.625114  61.768426  -143.7047  2.392143  -12.414079  64.175742  84.799286  -5.433176  -11.356666  -13.86878  0.049209  21.03237  43.948384  23.601595  20.114897  -26.40347  -0.191697  -120.544057  81.868073  5.894841  -23.778162  8.901048  2.14713  3.08877  6.664355  1.655798  2.285595  
0.0  93.25843  0.0  -6.312896  -31.362867  -91.969281  7.636286  -23.338514  -2.122725  15.387797  -0.280016  25.097845  8.708035  2.606905  8.274122  -3.438016  -2.782515  -15.443307  -5.873938  11.895315  15.312829  15.126618  2.95095  0.790917  -0.772889  -2.213751  0.662067  -2.178755  -6.028604  1.885219  -2.178755  -6.028604  1.885219  -11.769994  34.500393  -2.359465  161.316403  60.719005  -142.511063  1.41639  -12.581687  61.579291  84.563146  -8.152281  -10.405091  -13.378829  0.153466  21.149244  43.842468  24.109501  20.018512  -26.079875  -0.616466  -120.730963  81.712989  6.039902  -23.320057  8.486793  2.114269  3.126279  6.353753  1.629536  2.315599  
0.0  93.25843  0.0  -6.623052  -30.268583  -92.039954  7.571034  -24.063696  -3.02593  14.54201  -0.019719  26.737716  8.321944  2.590521  8.21303  -2.956475  -2.948114  -15.357432  -6.294241  12.137139  16.462254  15.003875  3.049537  0.677026  -0.797358  -2.28095  0.639992  -2.245939  -6.212289  1.829497  -2.245939  -6.212289  1.829497  -11.528043  34.772102  -2.019834  161.627152  59.694088  -141.788667  1.035466  -12.015707  61.191716  84.386716  -8.700313  -11.01066  -12.539131  0.095943  21.642941  43.709708  25.004441  19.697948  -25.819635  -1.112358  -120.737454  81.429794  6.221967  -22.741501  8.195421  2.206222  3.236197  6.134326  1.698479  2.397759  
0.0  93.25843  0.0  -6.917552  -28.839683  -92.096624  7.557154  -24.555132  -3.869419  13.063918  0.237523  27.975579  7.973662  2.666375  7.979736  -3.141245  -3.210287  -15.138695  -6.564302  12.369945  17.363028  14.749611  3.411138  0.591864  -0.8514  -2.348297  0.619664  -2.394267  -6.395535  1.781567  -2.394267  -6.395534  1.781568  -11.21168  35.088691  -1.780388  161.49328  58.688895  -141.453103  0.407339  -11.309433  60.818339  84.146099  -9.319321  -11.845761  -11.698637  -0.03841  22.041057  43.834763  26.003984  19.387187  -25.621867  -1.69331  -120.645176  80.981062  6.362629  -22.227561  7.88229  2.322834  3.308144  5.898537  1.785202  2.451277  
0.0  93.25843  0.0  -7.153085  -26.956122  -92.184751  7.227967  -24.799016  -4.706621  11.180771  0.524603  28.934675  7.851414  2.890904  7.734801  -3.74336  -3.205187  -15.028844  -7.288159  12.630053  18.223259  14.323978  3.829107  0.519335  -0.899415  -2.404819  0.611487  -2.526889  -6.548969  1.766188  -2.52689  -6.548969  1.766188  -11.132176  35.331695  -1.630272  161.092321  57.602568  -141.25549  -0.375206  -10.57523  60.478531  83.984607  -9.959837  -12.705836  -11.123205  -0.257488  22.397616  43.958189  27.24323  18.924983  -25.626136  -2.244443  -120.460117  80.258964  6.507252  -21.957855  7.355742  2.464069  3.244508  5.503054  1.887484  2.403745  
0.0  93.25843  0.0  -7.353749  -24.665398  -92.303453  6.647857  -24.975152  -5.638123  9.114918  1.085403  29.682693  8.127067  3.026426  7.740036  -4.981344  -3.239262  -14.764156  -8.21094  13.20636  18.873418  14.333625  4.038936  0.438913  -0.945491  -2.45556  0.597566  -2.653434  -6.686914  1.734837  -2.653434  -6.686914  1.734837  -11.033931  35.61036  -1.300127  160.625823  56.480646  -141.003478  -1.080842  -9.854621  60.211889  84.017717  -10.514505  -13.448319  -10.62931  -0.606531  22.842627  43.838955  28.782551  18.371458  -25.91997  -2.625923  -120.204451  79.398664  6.703536  -21.845493  6.643839  2.61009  3.123232  4.968826  1.991855  2.31395  
0.0  93.25843  0.0  -7.536974  -21.97127  -92.501061  5.955532  -25.142016  -6.627335  6.883523  1.897718  30.257686  8.685628  2.958643  7.749564  -7.530978  -3.411987  -14.030775  -8.689553  13.918329  19.009979  14.639266  4.303608  0.239975  -1.00382  -2.503135  0.566865  -2.811726  -6.816647  1.658794  -2.811726  -6.816647  1.658794  -10.646874  35.902544  -0.574556  160.235839  55.274143  -140.61663  -1.449178  -9.172666  60.121222  84.240843  -10.74734  -14.050898  -10.388062  -0.776846  23.354029  43.752309  30.364836  17.722568  -26.575276  -2.78352  -119.894192  78.513787  6.971549  -21.799107  5.730958  2.707985  3.025595  4.284129  2.059629  2.243597  
0.0  93.25843  0.0  -7.701409  -18.975176  -92.799971  5.0892  -25.276781  -7.477143  4.95783  2.631126  30.69825  9.392778  2.943782  7.931939  -10.486092  -3.457954  -13.168506  -8.720266  14.408089  19.139275  14.800461  4.454192  0.039198  -1.060871  -2.547487  0.520779  -2.96472  -6.938437  1.540495  -2.96472  -6.938436  1.540495  -10.012572  36.152594  0.494246  160.057247  53.976418  -140.085772  -1.30346  -8.473407  60.258304  84.621103  -10.502344  -14.589059  -10.185225  -0.836758  23.974268  43.462288  32.055936  16.992325  -27.429318  -2.800672  -119.579178  77.561093  7.259838  -21.675076  4.592293  2.740719  2.975885  3.430306  2.078092  2.211028  
